<svg id="Solid" height="512" viewBox="0 0 512 512" width="512" xmlns="http://www.w3.org/2000/svg"><path d="m416 160h-64v-64h64zm-320 256h64v-64h-64zm0-256h64v-64h-64zm392-144h-48a8 8 0 0 0 0 16h40v40a8 8 0 0 0 16 0v-48a8 8 0 0 0 -8-8zm-464 64a8 8 0 0 0 8-8v-40h40a8 8 0 0 0 0-16h-48a8 8 0 0 0 -8 8v48a8 8 0 0 0 8 8zm464 352a8 8 0 0 0 -8 8v40h-40a8 8 0 0 0 0 16h48a8 8 0 0 0 8-8v-48a8 8 0 0 0 -8-8zm-416 48h-40v-40a8 8 0 0 0 -16 0v48a8 8 0 0 0 8 8h48a8 8 0 0 0 0-16zm136-424v144a8 8 0 0 1 -8 8h-144a8 8 0 0 1 -8-8v-144a8 8 0 0 1 8-8h144a8 8 0 0 1 8 8zm-32 32a8 8 0 0 0 -8-8h-80a8 8 0 0 0 -8 8v80a8 8 0 0 0 8 8h80a8 8 0 0 0 8-8zm136 119.5a8 8 0 0 1 -8-8v-143.5a8 8 0 0 1 8-8h144a8 8 0 0 1 8 8v143.5a8 8 0 0 1 -8 8zm24-39.5a8 8 0 0 0 8 8h80a8 8 0 0 0 8-8v-80a8 8 0 0 0 -8-8h-80a8 8 0 0 0 -8 8zm-128 144v144a8 8 0 0 1 -8 8h-144a8 8 0 0 1 -8-8v-144a8 8 0 0 1 8-8h144a8 8 0 0 1 8 8zm-32 32a8 8 0 0 0 -8-8h-80a8 8 0 0 0 -8 8v80a8 8 0 0 0 8 8h80a8 8 0 0 0 8-8zm56-232a8 8 0 0 0 8-8v-40h8a8 8 0 0 0 0-16h-16a8 8 0 0 0 -8 8v48a8 8 0 0 0 8 8zm48-48a8 8 0 1 0 -8-8 8 8 0 0 0 8 8zm-16 48h16a8 8 0 0 0 8-8v-16a8 8 0 0 0 -16 0v8h-8a8 8 0 0 0 0 16zm16 24h-16a8 8 0 0 0 -8 8v32a8 8 0 0 0 16 0v-24h8a8 8 0 0 0 0-16zm-48 72h48a8 8 0 0 0 0-16h-40v-56a8 8 0 0 0 -16 0v64a8 8 0 0 0 8 8zm64 192a8 8 0 0 0 -8 8v40h-24a8 8 0 0 0 0 16h32a8 8 0 0 0 8-8v-48a8 8 0 0 0 -8-8zm-64 48a8 8 0 1 0 8 8 8 8 0 0 0 -8-8zm40-40a8 8 0 0 0 -8-8h-32a8 8 0 0 0 -8 8v16a8 8 0 0 0 16 0v-8h24a8 8 0 0 0 8-8zm-40-88a8 8 0 0 0 8-8v-40h16a8 8 0 0 0 0-16h-24a8 8 0 0 0 -8 8v48a8 8 0 0 0 8 8zm0-80h48v40a8 8 0 0 0 16 0v-48a8 8 0 0 0 -8-8h-56a8 8 0 0 0 0 16zm-176 16a8 8 0 0 0 -8 8v16a8 8 0 0 0 8 8h48a8 8 0 0 0 0-16h-40v-8a8 8 0 0 0 -8-8zm32-32h-32a8 8 0 0 0 0 16h24v8a8 8 0 0 0 16 0v-16a8 8 0 0 0 -8-8zm32 0a8 8 0 0 0 -8 8v16a8 8 0 0 0 8 8h48a8 8 0 0 0 0-16h-40v-8a8 8 0 0 0 -8-8zm80 0a8 8 0 0 0 -8 8v40h-56a8 8 0 0 0 0 16h64a8 8 0 0 0 8-8v-48a8 8 0 0 0 -8-8zm264 8a8 8 0 0 0 -8-8h-48a8 8 0 0 0 0 16h40v8a8 8 0 0 0 16 0zm-136 80a8 8 0 1 0 -8 8 8 8 0 0 0 8-8zm104-32v-16a8 8 0 0 0 -16 0v8h-32a8 8 0 0 0 0 16h40a8 8 0 0 0 8-8zm-80 40h39a8 8 0 0 0 0-16h-31v-40a8 8 0 0 0 -16 0v48a8 8 0 0 0 8 8zm32-88a8 8 0 0 0 -8-8h-56a8 8 0 0 0 -8 8v48a8 8 0 0 0 16 0v-40h48a8 8 0 0 0 8-8zm72 232h-128a8 8 0 0 1 -8-8v-112a8 8 0 0 1 8-8h128a8 8 0 0 1 8 8v112a8 8 0 0 1 -8 8zm-104-88a8 8 0 1 0 8-8 8 8 0 0 0 -8 8zm48 48a8 8 0 0 0 -8-8h-24v-8a8 8 0 0 0 -16 0v16a8 8 0 0 0 8 8h32a8 8 0 0 0 8-8zm32 0a8 8 0 1 0 -8 8 8 8 0 0 0 8-8zm0-48a8 8 0 0 0 -8-8h-32a8 8 0 0 0 0 16h24v8a8 8 0 0 0 16 0zm-144-56a8 8 0 0 0 0-16h-15a8 8 0 0 0 0 16zm136 0h32a8 8 0 0 0 8-8v-32a8 8 0 0 0 -16 0v24h-24a8 8 0 0 0 0 16zm-192 64a8 8 0 0 0 8-8v-32a8 8 0 0 0 -16 0v32a8 8 0 0 0 8 8zm64-48a8 8 0 0 0 -8 8v32a8 8 0 0 0 16 0v-32a8 8 0 0 0 -8-8zm-32 32a8 8 0 1 0 8 8 8 8 0 0 0 -8-8zm0-32a8 8 0 1 0 8 8 8 8 0 0 0 -8-8z"/></svg>