<svg width="24" height="24" viewBox="0 0 24 24" fill="none" xmlns="http://www.w3.org/2000/svg">
    <circle cx="12" cy="12" r="11.5" stroke="#999999"/>
    <path
        d="M11.6354 14.7708C11.6833 14.8187 11.7401 14.8567 11.8027 14.8826C11.8652 14.9085 11.9323 14.9219 12 14.9219C12.0677 14.9219 12.1348 14.9085 12.1973 14.8826C12.2599 14.8567 12.3167 14.8187 12.3646 14.7708L14.3091 12.8263C14.4058 12.7296 14.4601 12.5985 14.4601 12.4617C14.4601 12.325 14.4058 12.1938 14.3091 12.0971C14.2124 12.0004 14.0813 11.9461 13.9445 11.9461C13.8078 11.9461 13.6766 12.0004 13.5799 12.0971L12.5156 13.1614V7.53125C12.5156 7.3945 12.4613 7.26335 12.3646 7.16665C12.2679 7.06995 12.1367 7.01562 12 7.01562C11.8632 7.01562 11.7321 7.06995 11.6354 7.16665C11.5387 7.26335 11.4844 7.3945 11.4844 7.53125V13.1614L10.42 12.0971C10.3233 12.0004 10.1922 11.9461 10.0554 11.9461C9.9187 11.9461 9.78755 12.0004 9.69085 12.0971C9.59415 12.1938 9.53983 12.325 9.53983 12.4617C9.53983 12.5985 9.59415 12.7296 9.69085 12.8263L11.6354 14.7708Z"
        fill="#999999"/>
    <path
        d="M16.4688 11.4844C16.332 11.4844 16.2008 11.5387 16.1041 11.6354C16.0074 11.7321 15.9531 11.8632 15.9531 12V15.9531H8.04688V12C8.04688 11.8632 7.99255 11.7321 7.89585 11.6354C7.79915 11.5387 7.668 11.4844 7.53125 11.4844C7.3945 11.4844 7.26335 11.5387 7.16665 11.6354C7.06995 11.7321 7.01562 11.8632 7.01562 12V16.125C7.01562 16.3529 7.10617 16.5715 7.26733 16.7327C7.42849 16.8938 7.64708 16.9844 7.875 16.9844H16.125C16.3529 16.9844 16.5715 16.8938 16.7327 16.7327C16.8938 16.5715 16.9844 16.3529 16.9844 16.125V12C16.9844 11.8632 16.9301 11.7321 16.8334 11.6354C16.7367 11.5387 16.6055 11.4844 16.4688 11.4844Z"
        fill="#999999"/>
</svg>
