<?xml version="1.0" encoding="UTF-8" ?>
<!DOCTYPE svg PUBLIC "-//W3C//DTD SVG 1.1//EN" "http://www.w3.org/Graphics/SVG/1.1/DTD/svg11.dtd">
<svg width="512pt" height="512pt" viewBox="0 0 512 512" version="1.1" xmlns="http://www.w3.org/2000/svg">
<g id="#000000ff">
<path fill="#000000" opacity="1.00" d=" M 228.54 1.78 C 271.82 -2.92 316.27 3.64 356.29 20.80 C 409.86 43.57 455.05 85.29 482.18 136.79 C 502.49 175.10 512.69 218.67 511.62 262.01 C 510.70 303.56 499.42 344.85 478.99 381.05 C 448.37 435.77 397.01 478.52 337.50 498.37 C 294.15 513.01 246.85 515.63 202.14 505.97 C 157.35 496.41 115.35 474.37 81.90 443.11 C 61.42 424.08 44.11 401.68 30.83 377.09 C 11.60 341.55 1.10 301.37 0.36 260.97 C -0.66 212.86 12.29 164.53 37.41 123.46 C 65.84 76.52 109.75 39.13 160.72 18.72 C 182.40 9.98 205.30 4.28 228.54 1.78 M 237.50 51.68 C 210.72 55.06 184.78 65.69 163.82 82.77 C 135.35 105.42 115.88 139.07 110.55 175.06 C 105.70 205.49 110.87 237.44 125.16 264.74 C 136.30 286.70 153.45 305.45 173.75 319.30 C 178.30 322.51 183.39 324.88 188.03 327.93 C 188.19 328.26 188.49 328.91 188.64 329.23 C 189.28 335.81 188.53 342.46 188.98 349.06 C 189.83 356.36 196.57 362.59 204.03 362.32 C 235.69 362.58 267.36 362.35 299.03 362.44 C 302.36 362.41 305.72 362.51 309.04 362.04 C 314.87 361.00 320.33 357.04 322.29 351.32 C 324.75 343.80 321.81 335.48 324.01 328.01 C 334.98 321.66 345.82 314.82 354.94 305.91 C 383.81 279.87 401.28 241.75 402.39 202.91 C 402.85 198.58 402.91 194.23 402.33 189.91 C 400.60 149.17 380.44 109.85 348.89 84.13 C 325.36 64.53 295.46 52.96 264.96 50.88 C 255.80 50.82 246.59 50.40 237.50 51.68 M 186.87 375.91 C 186.86 398.21 186.85 420.50 186.87 442.80 C 191.84 442.80 196.81 442.80 201.78 442.80 C 201.79 433.07 201.77 423.34 201.79 413.61 C 205.18 413.59 208.58 413.59 211.98 413.60 C 211.98 423.33 211.97 433.06 211.98 442.79 C 216.96 442.81 221.94 442.80 226.93 442.80 C 226.94 420.50 226.93 398.21 226.93 375.91 C 221.95 375.90 216.97 375.90 211.98 375.91 C 211.97 384.93 211.98 393.94 211.98 402.96 C 208.58 402.96 205.18 402.96 201.78 402.96 C 201.78 393.94 201.78 384.93 201.78 375.91 C 196.81 375.90 191.84 375.90 186.87 375.91 M 236.44 420.97 C 236.51 426.70 236.73 432.98 240.23 437.80 C 243.63 442.32 249.59 443.66 254.95 443.80 C 260.58 443.93 266.90 443.30 271.13 439.16 C 275.32 434.99 275.98 428.67 276.13 423.06 C 276.13 407.34 276.13 391.63 276.13 375.91 C 271.20 375.90 266.27 375.90 261.35 375.91 C 261.35 391.95 261.34 407.98 261.36 424.02 C 261.26 426.60 261.31 429.44 259.81 431.67 C 258.01 433.65 254.26 433.59 252.61 431.45 C 251.15 428.92 251.19 425.88 251.13 423.05 C 251.15 407.34 251.14 391.63 251.13 375.91 C 246.26 375.88 241.40 375.97 236.53 375.83 C 236.32 390.87 236.50 405.92 236.44 420.97 M 285.47 442.79 C 292.67 442.78 299.87 442.84 307.07 442.78 C 312.26 442.70 317.83 441.43 321.54 437.55 C 325.02 433.98 326.17 428.82 326.31 423.98 C 326.42 419.31 325.67 414.19 322.36 410.64 C 320.47 408.50 317.72 407.51 315.02 406.86 C 319.30 405.84 322.98 402.51 323.77 398.09 C 324.89 392.05 324.36 384.77 319.54 380.37 C 315.66 376.72 310.01 376.19 304.95 375.94 C 298.46 375.84 291.97 375.94 285.48 375.91 C 285.45 398.20 285.47 420.50 285.47 442.79 M 198.33 455.42 C 194.87 456.68 192.87 461.05 194.56 464.42 C 196.43 468.17 198.44 471.86 200.42 475.57 C 203.01 480.41 208.61 483.01 213.98 482.78 C 241.99 482.77 270.00 482.77 298.01 482.78 C 301.51 482.85 305.09 481.98 307.90 479.83 C 310.92 477.70 312.43 474.23 314.10 471.07 C 315.40 468.40 317.10 465.92 318.02 463.09 C 319.04 458.96 315.33 454.51 311.05 454.98 C 275.03 454.96 239.01 455.01 202.98 454.96 C 201.43 455.01 199.81 454.88 198.33 455.42 Z" />
<path fill="#000000" opacity="1.00" d=" M 243.94 103.03 C 251.97 102.90 260.01 102.98 268.05 102.90 C 268.19 107.51 268.18 112.12 268.20 116.72 C 282.77 116.87 297.35 116.76 311.92 116.80 C 311.92 118.24 311.92 119.69 311.92 121.13 C 311.91 131.17 311.92 141.21 311.91 151.25 C 290.23 151.28 268.55 151.26 246.86 151.17 C 248.35 152.65 249.86 154.13 251.37 155.60 C 265.75 169.68 280.00 183.88 294.33 198.01 C 277.07 215.22 259.61 232.23 242.23 249.32 C 244.67 249.33 247.12 249.34 249.56 249.34 C 270.97 249.33 292.39 249.31 313.80 249.31 C 313.80 250.75 313.81 252.19 313.82 253.63 C 313.84 263.82 313.87 274.02 313.88 284.21 C 298.57 284.24 283.26 284.20 267.95 284.23 C 267.93 288.31 267.93 292.39 267.92 296.48 C 260.92 296.47 253.92 296.48 246.92 296.47 C 246.34 296.47 245.19 296.46 244.61 296.46 C 244.60 293.58 244.60 290.69 244.59 287.81 C 244.59 286.61 244.59 285.41 244.59 284.21 C 229.38 284.14 214.18 284.38 198.98 284.08 C 198.94 269.85 198.85 255.63 199.10 241.40 C 214.46 226.55 229.82 211.70 245.03 196.70 C 229.98 181.88 214.97 167.02 200.08 152.04 C 200.12 140.26 200.11 128.47 200.14 116.69 C 214.74 116.73 229.34 116.76 243.94 116.80 C 243.95 112.21 243.95 107.62 243.94 103.03 Z" />
<path fill="#000000" opacity="1.00" d=" M 300.31 385.88 C 303.49 385.91 307.33 385.70 309.56 388.44 C 311.85 391.54 311.50 395.93 310.21 399.36 C 308.52 403.09 303.71 402.55 300.33 402.70 C 300.29 397.09 300.32 391.49 300.31 385.88 Z" />
<path fill="#000000" opacity="1.00" d=" M 300.33 432.44 C 300.30 425.77 300.31 419.10 300.33 412.43 C 303.94 412.49 308.99 412.05 310.80 416.02 C 312.37 420.26 312.58 425.40 310.43 429.47 C 308.30 432.86 303.76 432.32 300.33 432.44 Z" />
</g>
<g id="#ffc20bff">
<path fill="#ffc20b" opacity="1.00" d=" M 237.50 51.68 C 246.59 50.40 255.80 50.82 264.96 50.88 C 295.46 52.96 325.36 64.53 348.89 84.13 C 380.44 109.85 400.60 149.17 402.33 189.91 C 402.91 194.23 402.85 198.58 402.39 202.91 C 401.28 241.75 383.81 279.87 354.94 305.91 C 345.82 314.82 334.98 321.66 324.01 328.01 C 321.81 335.48 324.75 343.80 322.29 351.32 C 320.33 357.04 314.87 361.00 309.04 362.04 C 305.72 362.51 302.36 362.41 299.03 362.44 C 267.36 362.35 235.69 362.58 204.03 362.32 C 196.57 362.59 189.83 356.36 188.98 349.06 C 188.53 342.46 189.28 335.81 188.64 329.23 C 188.49 328.91 188.19 328.26 188.03 327.93 C 183.39 324.88 178.30 322.51 173.75 319.30 C 153.45 305.45 136.30 286.70 125.16 264.74 C 110.87 237.44 105.70 205.49 110.55 175.06 C 115.88 139.07 135.35 105.42 163.82 82.77 C 184.78 65.69 210.72 55.06 237.50 51.68 M 243.94 103.03 C 243.95 107.62 243.95 112.21 243.94 116.80 C 229.34 116.76 214.74 116.73 200.14 116.69 C 200.11 128.47 200.12 140.26 200.08 152.04 C 214.97 167.02 229.98 181.88 245.03 196.70 C 229.82 211.70 214.46 226.55 199.10 241.40 C 198.85 255.63 198.94 269.85 198.98 284.08 C 201.19 285.43 203.09 287.88 205.95 287.57 C 218.83 287.65 231.71 287.77 244.59 287.81 C 244.60 290.69 244.60 293.58 244.61 296.46 C 245.19 296.46 246.34 296.47 246.92 296.47 C 247.07 297.29 247.37 298.94 247.52 299.77 C 251.62 300.70 255.83 300.26 259.99 300.38 C 263.57 300.47 267.18 300.65 270.73 299.98 C 270.69 296.10 270.75 292.21 271.30 288.37 C 284.87 288.28 298.44 288.48 312.00 288.59 C 313.60 288.58 315.18 288.34 316.76 288.15 C 316.62 276.77 317.30 265.38 316.86 254.01 C 316.10 253.91 314.58 253.73 313.82 253.63 C 313.81 252.19 313.80 250.75 313.80 249.31 C 292.39 249.31 270.97 249.33 249.56 249.34 C 252.75 245.61 256.36 242.28 259.89 238.89 C 270.06 229.38 279.92 219.54 289.91 209.85 C 292.50 207.40 295.39 205.22 297.38 202.21 C 296.35 200.82 295.34 199.41 294.33 198.01 C 280.00 183.88 265.75 169.68 251.37 155.60 C 253.86 154.83 256.45 154.47 259.05 154.60 C 270.70 154.88 282.37 154.45 294.01 155.27 C 301.24 155.08 308.51 155.84 315.72 154.99 C 315.81 148.68 315.78 142.37 315.75 136.05 C 315.70 131.41 316.60 126.76 315.81 122.14 C 314.51 121.81 313.21 121.47 311.92 121.13 C 311.92 119.69 311.92 118.24 311.92 116.80 C 297.35 116.76 282.77 116.87 268.20 116.72 C 268.18 112.12 268.19 107.51 268.05 102.90 C 260.01 102.98 251.97 102.90 243.94 103.03 M 269.09 107.26 C 268.67 110.18 268.62 113.13 268.88 116.07 C 270.09 116.01 271.31 115.97 272.53 115.95 C 272.56 113.07 272.55 110.20 272.52 107.32 C 271.37 107.31 270.23 107.29 269.09 107.26 Z" />
<path fill="#ffc20b" opacity="1.00" d=" M 186.87 375.91 C 191.84 375.90 196.81 375.90 201.78 375.91 C 201.78 384.93 201.78 393.94 201.78 402.96 C 205.18 402.96 208.58 402.96 211.98 402.96 C 211.98 393.94 211.97 384.93 211.98 375.91 C 216.97 375.90 221.95 375.90 226.93 375.91 C 226.93 398.21 226.94 420.50 226.93 442.80 C 221.94 442.80 216.96 442.81 211.98 442.79 C 211.97 433.06 211.98 423.33 211.98 413.60 C 208.58 413.59 205.18 413.59 201.79 413.61 C 201.77 423.34 201.79 433.07 201.78 442.80 C 196.81 442.80 191.84 442.80 186.87 442.80 C 186.85 420.50 186.86 398.21 186.87 375.91 Z" />
<path fill="#ffc20b" opacity="1.00" d=" M 236.44 420.97 C 236.50 405.92 236.32 390.87 236.53 375.83 C 241.40 375.97 246.26 375.88 251.13 375.91 C 251.14 391.63 251.15 407.34 251.13 423.05 C 251.19 425.88 251.15 428.92 252.61 431.45 C 254.26 433.59 258.01 433.65 259.81 431.67 C 261.31 429.44 261.26 426.60 261.36 424.02 C 261.34 407.98 261.35 391.95 261.35 375.91 C 266.27 375.90 271.20 375.90 276.13 375.91 C 276.13 391.63 276.13 407.34 276.13 423.06 C 275.98 428.67 275.32 434.99 271.13 439.16 C 266.90 443.30 260.58 443.93 254.95 443.80 C 249.59 443.66 243.63 442.32 240.23 437.80 C 236.73 432.98 236.51 426.70 236.44 420.97 Z" />
<path fill="#ffc20b" opacity="1.00" d=" M 285.47 442.79 C 285.47 420.50 285.45 398.20 285.48 375.91 C 291.97 375.94 298.46 375.84 304.95 375.94 C 310.01 376.19 315.66 376.72 319.54 380.37 C 324.36 384.77 324.89 392.05 323.77 398.09 C 322.98 402.51 319.30 405.84 315.02 406.86 C 317.72 407.51 320.47 408.50 322.36 410.64 C 325.67 414.19 326.42 419.31 326.31 423.98 C 326.17 428.82 325.02 433.98 321.54 437.55 C 317.83 441.43 312.26 442.70 307.07 442.78 C 299.87 442.84 292.67 442.78 285.47 442.79 M 300.31 385.88 C 300.32 391.49 300.29 397.09 300.33 402.70 C 303.71 402.55 308.52 403.09 310.21 399.36 C 311.50 395.93 311.85 391.54 309.56 388.44 C 307.33 385.70 303.49 385.91 300.31 385.88 M 300.33 432.44 C 303.76 432.32 308.30 432.86 310.43 429.47 C 312.58 425.40 312.37 420.26 310.80 416.02 C 308.99 412.05 303.94 412.49 300.33 412.43 C 300.31 419.10 300.30 425.77 300.33 432.44 Z" />
<path fill="#ffc20b" opacity="1.00" d=" M 198.33 455.42 C 199.81 454.88 201.43 455.01 202.98 454.96 C 239.01 455.01 275.03 454.96 311.05 454.98 C 315.33 454.51 319.04 458.96 318.02 463.09 C 317.10 465.92 315.40 468.40 314.10 471.07 C 312.43 474.23 310.92 477.70 307.90 479.83 C 305.09 481.98 301.51 482.85 298.01 482.78 C 270.00 482.77 241.99 482.77 213.98 482.78 C 208.61 483.01 203.01 480.41 200.42 475.57 C 198.44 471.86 196.43 468.17 194.56 464.42 C 192.87 461.05 194.87 456.68 198.33 455.42 Z" />
</g>
<g id="#e69e06ff">
<path fill="#e69e06" opacity="1.00" d=" M 269.09 107.26 C 270.23 107.29 271.37 107.31 272.52 107.32 C 272.55 110.20 272.56 113.07 272.53 115.95 C 271.31 115.97 270.09 116.01 268.88 116.07 C 268.62 113.13 268.67 110.18 269.09 107.26 Z" />
<path fill="#e69e06" opacity="1.00" d=" M 311.92 121.13 C 313.21 121.47 314.51 121.81 315.81 122.14 C 316.60 126.76 315.70 131.41 315.75 136.05 C 315.78 142.37 315.81 148.68 315.72 154.99 C 308.51 155.84 301.24 155.08 294.01 155.27 C 282.37 154.45 270.70 154.88 259.05 154.60 C 256.45 154.47 253.86 154.83 251.37 155.60 C 249.86 154.13 248.35 152.65 246.86 151.17 C 268.55 151.26 290.23 151.28 311.91 151.25 C 311.92 141.21 311.91 131.17 311.92 121.13 Z" />
<path fill="#e69e06" opacity="1.00" d=" M 294.33 198.01 C 295.34 199.41 296.35 200.82 297.38 202.21 C 295.39 205.22 292.50 207.40 289.91 209.85 C 279.92 219.54 270.06 229.38 259.89 238.89 C 256.36 242.28 252.75 245.61 249.56 249.34 C 247.12 249.34 244.67 249.33 242.23 249.32 C 259.61 232.23 277.07 215.22 294.33 198.01 Z" />
<path fill="#e69e06" opacity="1.00" d=" M 313.82 253.63 C 314.58 253.73 316.10 253.91 316.86 254.01 C 317.30 265.38 316.62 276.77 316.76 288.15 C 315.18 288.34 313.60 288.58 312.00 288.59 C 298.44 288.48 284.87 288.28 271.30 288.37 C 270.75 292.21 270.69 296.10 270.73 299.98 C 267.18 300.65 263.57 300.47 259.99 300.38 C 255.83 300.26 251.62 300.70 247.52 299.77 C 247.37 298.94 247.07 297.29 246.92 296.47 C 253.92 296.48 260.92 296.47 267.92 296.48 C 267.93 292.39 267.93 288.31 267.95 284.23 C 283.26 284.20 298.57 284.24 313.88 284.21 C 313.87 274.02 313.84 263.82 313.82 253.63 Z" />
<path fill="#e69e06" opacity="1.00" d=" M 198.98 284.08 C 214.18 284.38 229.38 284.14 244.59 284.21 C 244.59 285.41 244.59 286.61 244.59 287.81 C 231.71 287.77 218.83 287.65 205.95 287.57 C 203.09 287.88 201.19 285.43 198.98 284.08 Z" />
</g>
</svg>
